<?xml version="1.0" encoding="UTF-8" standalone="no"?>
<svg
   width="1000px"
   height="1000px"
   viewBox="0 0 1000 1000"
   version="1.1"
   id="svg2"
   sodipodi:docname="Logo.svg"
   inkscape:version="1.3.2 (091e20e, 2023-11-25, custom)"
   xmlns:inkscape="http://www.inkscape.org/namespaces/inkscape"
   xmlns:sodipodi="http://sodipodi.sourceforge.net/DTD/sodipodi-0.dtd"
   xmlns="http://www.w3.org/2000/svg"
   xmlns:svg="http://www.w3.org/2000/svg">
  <sodipodi:namedview
     id="namedview2"
     pagecolor="#ffffff"
     bordercolor="#000000"
     borderopacity="0.25"
     inkscape:showpageshadow="2"
     inkscape:pageopacity="0.0"
     inkscape:pagecheckerboard="0"
     inkscape:deskcolor="#d1d1d1"
     inkscape:zoom="0.861"
     inkscape:cx="499.41928"
     inkscape:cy="500"
     inkscape:window-width="1920"
     inkscape:window-height="1057"
     inkscape:window-x="-8"
     inkscape:window-y="-8"
     inkscape:window-maximized="1"
     inkscape:current-layer="Artboard" />
  <!-- Generator: Sketch 53.2 (72643) - https://sketchapp.com -->
  <title
     id="title1">Artboard</title>
  <desc
     id="desc1">Created with Sketch.</desc>
  <defs
     id="defs2">
    <linearGradient
       x1="50%"
       y1="0%"
       x2="50%"
       y2="99.2583404%"
       id="linearGradient-1">
      <stop
         stop-color="#2AABEE"
         offset="0%"
         id="stop1" />
      <stop
         stop-color="#229ED9"
         offset="100%"
         id="stop2" />
    </linearGradient>
  </defs>
  <g
     id="Artboard"
     stroke="none"
     stroke-width="1"
     fill="none"
     fill-rule="evenodd">
    <path
       id="Oval"
       d="M 500 0 A 500 500 0 0 0 0 500 A 500 500 0 0 0 500 1000 A 500 500 0 0 0 1000 500 A 500 500 0 0 0 500 0 z M 704.43164 301.00391 C 708.56783 300.93104 717.81604 301.95545 723.80664 306.81641 C 728.86499 310.92091 730.25588 316.46591 730.92188 320.35742 C 731.58787 324.24894 732.41706 333.11418 731.75781 340.04102 C 724.2332 419.10276 691.67543 610.96512 675.11133 699.51562 C 668.10243 736.98466 654.30211 749.54787 640.94141 750.77734 C 611.9055 753.44927 589.85512 731.58712 561.73242 713.15234 C 517.72596 684.30555 492.86628 666.34836 450.15039 638.19922 C 400.78479 605.66802 432.78661 587.78882 460.91992 558.56836 C 468.28254 550.92123 596.21526 434.55611 598.69141 424 C 599.00109 422.67978 599.2888 417.7587 596.36523 415.16016 C 593.44167 412.56161 589.1255 413.44954 586.01172 414.15625 C 581.59803 415.15799 511.29748 461.62582 375.10938 553.55664 C 355.1547 567.25906 337.08069 573.9358 320.88672 573.58594 C 303.03416 573.20024 268.69318 563.49187 243.16406 555.19336 C 211.85155 545.0149 186.9638 539.63188 189.13086 522.3457 C 190.2596 513.34199 202.65897 504.13509 226.32812 494.72266 C 372.08813 431.21734 469.28564 389.35091 517.91797 369.12305 C 656.77315 311.36837 685.62571 301.33519 704.43164 301.00391 z "
       style="fill:#ffffff" />
  </g>
</svg>
